<?xml version="1.0" standalone="no"?>
<!DOCTYPE svg PUBLIC "-//W3C//DTD SVG 20010904//EN"
 "http://www.w3.org/TR/2001/REC-SVG-20010904/DTD/svg10.dtd">
<svg version="1.0" xmlns="http://www.w3.org/2000/svg"
 width="512.000000pt" height="512.000000pt" viewBox="0 0 512.000000 512.000000"
 preserveAspectRatio="xMidYMid meet">

<g transform="translate(0.000000,512.000000) scale(0.100000,-0.100000)"
fill="#000000" stroke="none">
<path d="M2375 5105 c-529 -74 -972 -454 -1120 -960 -46 -157 -48 -177 -54
-655 l-6 -465 -136 -5 c-126 -5 -138 -7 -176 -32 -24 -16 -49 -44 -62 -70
l-21 -44 0 -1363 c0 -1319 1 -1363 19 -1399 24 -47 56 -77 103 -97 33 -13 216
-15 1638 -15 1422 0 1605 2 1638 15 47 20 79 50 103 97 18 36 19 80 19 1399
l0 1363 -21 44 c-13 26 -38 54 -62 70 -38 25 -50 27 -176 32 l-136 5 -6 465
c-4 265 -11 486 -17 515 -25 119 -67 238 -121 350 -258 527 -827 831 -1406
750z m310 -511 c83 -8 209 -53 301 -105 153 -87 292 -249 362 -419 56 -138 62
-199 62 -646 l0 -404 -850 0 -850 0 0 408 c0 359 2 418 19 498 22 106 80 237
145 329 132 184 364 320 589 344 81 8 103 8 222 -5z m13 -3033 c178 -92 236
-313 122 -469 l-30 -42 0 -365 0 -365 -240 0 -240 0 0 374 0 373 -32 63 c-29
56 -33 72 -33 144 1 146 75 251 214 303 55 20 185 12 239 -16z"/>
</g>
</svg>
