<?xml version="1.0" standalone="no"?>
<!DOCTYPE svg PUBLIC "-//W3C//DTD SVG 20010904//EN"
 "http://www.w3.org/TR/2001/REC-SVG-20010904/DTD/svg10.dtd">
<svg version="1.0" xmlns="http://www.w3.org/2000/svg"
 width="360.000000pt" height="412.000000pt" viewBox="0 0 360.000000 412.000000"
 preserveAspectRatio="xMidYMid meet">

<g transform="translate(0.000000,412.000000) scale(0.100000,-0.100000)"
fill="#000000" stroke="none">
<path d="M1043 4095 c-202 -55 -360 -229 -394 -434 -4 -29 -10 -55 -12 -57 -2
-2 -59 -8 -128 -13 -148 -11 -213 -32 -302 -100 -71 -54 -152 -166 -182 -251
-19 -54 -20 -91 -23 -1410 -2 -930 1 -1371 8 -1406 40 -193 219 -374 408 -413
37 -8 367 -11 1065 -11 1116 0 1068 -3 1191 63 75 40 172 134 213 207 31 55
58 134 68 201 l5 36 108 6 c167 9 268 52 377 162 33 33 75 87 92 121 65 122
63 82 63 1236 l0 1047 -448 513 -448 513 -804 2 c-667 1 -814 -1 -857 -12z
m1397 -513 c0 -148 5 -295 11 -328 28 -156 140 -299 294 -375 l88 -44 254 -3
253 -3 0 -928 0 -927 -26 -53 c-31 -62 -102 -122 -165 -140 -33 -9 -290 -11
-1049 -9 l-1005 3 -55 31 c-59 34 -112 100 -130 162 -6 24 -10 485 -10 1348 0
1452 -4 1360 66 1442 19 22 57 52 86 66 l52 26 668 0 668 0 0 -268z m594 -132
l306 -365 -178 -3 c-229 -4 -249 -1 -305 48 -59 52 -100 118 -131 212 -25 73
-26 87 -26 289 0 185 2 211 14 199 8 -8 152 -179 320 -380z m-2392 -1312 l3
-1203 24 -60 c66 -165 182 -279 342 -337 l64 -23 813 -3 c654 -2 812 -5 812
-16 0 -32 -34 -107 -66 -144 -19 -22 -57 -52 -86 -66 l-52 -26 -1015 0 c-1000
0 -1017 1 -1061 21 -60 27 -107 74 -136 134 l-24 50 0 1335 c0 1321 1 1335 21
1380 51 112 131 156 291 159 l67 1 3 -1202z"/>
<path d="M1495 2300 c-30 -12 -64 -53 -74 -88 -20 -67 30 -144 102 -157 18 -3
300 -5 627 -3 478 2 599 6 615 16 84 57 81 180 -6 224 -31 17 -82 18 -639 17
-333 0 -614 -4 -625 -9z"/>
<path d="M1483 1650 c-44 -26 -66 -63 -66 -110 0 -47 22 -84 66 -110 31 -19
55 -20 637 -20 567 0 607 1 639 18 38 20 71 73 71 112 0 39 -33 92 -71 112
-32 17 -72 18 -639 18 -582 0 -606 -1 -637 -20z"/>
</g>
</svg>
