<?xml version="1.0" standalone="no"?>
<!DOCTYPE svg PUBLIC "-//W3C//DTD SVG 20010904//EN"
 "http://www.w3.org/TR/2001/REC-SVG-20010904/DTD/svg10.dtd">
<svg version="1.0" xmlns="http://www.w3.org/2000/svg"
 width="474.000000pt" height="368.000000pt" viewBox="0 0 474.000000 368.000000"
 preserveAspectRatio="xMidYMid meet">

<g transform="translate(0.000000,368.000000) scale(0.100000,-0.100000)"
fill="#000000" stroke="none">
<path d="M2140 3670 c0 -5 -15 -10 -32 -10 -18 0 -81 -11 -140 -24 -412 -94
-778 -323 -1040 -651 -262 -328 -398 -720 -398 -1145 0 -289 54 -530 175 -787
233 -493 675 -858 1204 -994 63 -16 141 -32 173 -36 32 -3 58 -10 58 -14 0
-12 457 -12 464 0 3 4 30 11 60 15 90 10 274 62 395 110 582 235 996 738 1123
1366 20 100 23 144 23 340 0 196 -3 240 -23 340 -111 546 -436 998 -912 1265
-177 99 -443 192 -606 211 -30 4 -57 11 -60 15 -8 13 -464 11 -464 -1z m573
-159 c606 -132 1084 -557 1276 -1137 75 -226 102 -444 83 -663 -15 -165 -33
-256 -83 -405 -192 -580 -671 -1005 -1282 -1138 -89 -20 -131 -22 -337 -22
-206 0 -248 2 -337 22 -528 115 -954 442 -1189 912 -140 279 -203 600 -175
893 15 169 33 253 82 401 202 609 720 1047 1358 1151 132 22 476 13 604 -14z"/>
<path d="M2280 2951 c-81 -27 -149 -82 -185 -150 -32 -63 -37 -119 -20 -246 8
-66 40 -338 71 -605 62 -541 62 -543 139 -580 52 -25 105 -25 154 -1 45 23 66
53 81 113 5 23 28 205 50 403 22 198 49 434 60 525 11 91 23 192 27 226 17
171 -108 312 -282 320 -38 2 -81 0 -95 -5z"/>
<path d="M2280 1179 c-80 -36 -125 -96 -136 -183 -20 -144 127 -280 268 -247
66 15 124 56 156 110 53 90 29 224 -51 285 -77 59 -158 71 -237 35z"/>
</g>
</svg>
